<svg width="183" height="183" viewBox="0 0 183 183" fill="none" xmlns="http://www.w3.org/2000/svg">
<path d="M177.98 116.171L179.81 116.4L180.725 118.001L172.49 125.549L169.059 126.464L150.303 141.79L149.159 143.619L157.851 158.945L90.6018 175.414L92.6605 177.702L77.5637 181.59L76.1912 178.845L124.913 150.71L125.828 148.881L119.423 136.3L120.109 135.842L169.059 118.916L177.98 116.171Z" fill="#F7CF5B"/>
<path d="M95.1766 173.584C94.9936 173.218 135.816 161.995 156.25 156.429L158.08 158.259L157.394 159.174L137.722 164.206C123.617 167.485 95.3596 173.95 95.1766 173.584Z" fill="#F1B241"/>
<path d="M147.711 122.637C130.631 127.699 116.114 132.213 115.565 132.762C113.857 134.348 114.284 136.361 117.7 142.888C119.408 146.243 120.628 149.048 120.262 149.171C119.164 149.597 77.0147 176.314 75.9167 177.29C74.3919 178.693 74.5749 180.95 76.2827 182.048C77.9909 183.207 76.2219 183.512 112.881 174.789C128.069 171.19 139.903 168.08 140.147 167.591C140.94 166.433 140.574 164.603 139.415 163.871C138.622 163.383 133.254 164.42 118.371 168.019C90.4344 174.667 89.0313 175.033 90.3122 175.948C91.654 176.924 90.6173 177.778 87.3235 178.388C85.9813 178.571 83.4194 179.303 81.6508 179.913C78.7837 180.95 78.3569 180.95 78.0518 180.157C77.5636 178.937 78.2956 178.327 85.0055 174.179C91.1663 170.458 91.8983 170.153 90.0684 171.983C88.7874 173.264 88.4823 174.423 89.3973 174.423C89.6411 174.423 94.521 171.496 100.194 167.957C105.866 164.359 113.369 159.662 116.907 157.466C124.409 152.891 126.91 150.512 126.422 148.56C126.239 147.828 124.775 144.779 123.129 141.79L120.14 136.3L124.471 135.019C126.85 134.348 138.012 131.054 149.358 127.761C160.642 124.528 170.219 121.6 170.645 121.295C171.317 120.929 171.255 120.624 170.34 119.953C169.242 119.16 169.365 118.977 172.598 118.062C181.015 115.622 181.747 116.232 176.257 121.112C171.743 125.016 170.828 125.565 171.743 123.918C172.902 121.722 172.475 121.234 170.645 122.515C167.535 124.711 149.907 140.814 149.235 142.034C148.93 142.705 148.626 143.498 148.626 143.802C148.626 144.108 150.699 147.584 153.2 151.488C156.006 155.88 157.47 158.686 156.982 158.869C156.555 158.991 154.725 159.418 152.895 159.845C148.381 160.821 147.406 161.37 147.406 163.078C147.406 165.944 148.747 166.25 155.213 164.725C161.374 163.261 163.875 161.736 163.875 159.54C163.875 158.869 161.74 155.026 159.178 151.061L154.542 143.742L157.409 141.241C171.866 128.553 181.564 119.587 182.113 118.489C183.15 116.232 181.381 113.182 179.246 113.487C179.002 113.487 164.851 117.635 147.711 122.637ZM119.957 134.104C119.957 134.47 119.713 134.897 119.347 135.08C119.042 135.263 118.737 135.995 118.737 136.666C118.737 137.337 118.493 137.703 118.127 137.52C117.273 136.971 117.395 134.348 118.31 133.982C119.469 133.494 119.957 133.494 119.957 134.104ZM153.932 141.363C153.383 141.912 152.712 143.132 152.346 143.925L151.737 145.449V143.864C151.675 142.827 152.163 141.912 153.078 141.302C154.847 140.021 155.152 140.021 153.932 141.363ZM160.825 159.235C160.825 160.272 159.666 161.004 157.958 161.004C157.104 161.004 157.104 160.882 157.958 159.906C158.568 159.296 158.995 158.137 158.995 157.344C158.995 155.941 158.995 155.941 159.91 157.1C160.398 157.71 160.825 158.686 160.825 159.235Z" fill="black"/>
<path d="M1.16473 71.3379L2.53717 69.508L4.13835 69.7367L10.0856 77.5138L25.4111 104.048L41.1941 97.1854L41.8803 97.8716L51.2587 165.807L52.1736 180.218L51.2587 180.675H50.115L44.1677 168.095L29.2997 129.209L27.0123 128.294L13.7454 131.954L5.51078 83.9185L3.22339 82.0886L1.16473 71.3379Z" fill="#F7CF5B"/>
<path d="M47.5988 164.206C47.0498 163.657 41.7278 120.364 39.1354 98.7866L41.8803 97.4142C44.0152 119.907 48.1478 164.755 47.5988 164.206Z" fill="#F1B241"/>
<path d="M1.01226 68.2883C0.036301 69.2641 -0.14669 70.0569 0.0972981 71.826C4.91607 107.57 9.1859 135.263 9.97885 136.117C11.6868 138.008 12.9677 137.886 19.6774 135.446C23.3372 134.104 26.3261 133.067 26.3871 133.128C26.4481 133.189 31.3888 144.168 37.3666 157.527C43.6493 171.556 48.7118 182.109 49.3221 182.414C51.0299 183.329 53.4088 182.414 53.8969 180.645C54.0799 179.791 52.4938 160.028 50.2979 136.788C45.967 90.8571 46.2113 92.0772 42.4904 92.0772C41.5754 92.0772 37.6106 93.602 33.7068 95.4319C29.8029 97.2618 26.5091 98.7866 26.3261 98.7866C26.2041 98.7866 21.6293 92.138 16.2006 83.9643C10.7718 75.8518 5.95303 68.7151 5.40406 68.1053C4.18411 66.7022 2.53719 66.7631 1.01226 68.2883ZM6.38 73.5951C7.66094 75.5467 9.06389 77.7426 9.49085 78.5358C10.2228 79.9385 10.2228 79.9385 8.63692 78.9018C7.78295 78.3528 6.92897 78.0477 6.685 78.2307C6.07504 78.9018 22.8492 103.667 24.3742 104.215C25.8991 104.825 28.278 103.972 36.2076 100.19L41.2094 97.7499L41.5144 100.556C41.6974 102.08 43.1003 116.659 44.6252 132.945C46.15 149.231 47.4922 163.566 47.736 164.847C48.102 167.287 48.7731 167.714 49.6881 166.127C50.3588 164.908 50.786 166.859 51.3959 174.484C51.9448 181.621 51.0299 181.987 48.2242 175.826C45.1132 169.177 44.2592 166.616 44.9912 166.189C45.2962 165.944 45.5401 166.189 45.5401 166.676C45.5401 167.165 45.967 167.714 46.4551 167.957C46.9432 168.14 47.37 168.019 47.37 167.714C47.37 167.104 32.7918 134.287 30.8399 130.383C29.132 127.029 27.607 126.906 20.4094 129.59C17.0545 130.81 14.2486 131.725 14.1267 131.603C14.0047 131.542 12.2968 119.953 10.2228 105.923C6.80701 82.2565 5.40406 75.3028 5.28205 80.1828C5.22107 81.1586 5.03808 81.6467 4.85508 81.2194C4.73307 80.8534 4.3061 80.6096 4.00112 80.8534C3.69613 81.0364 3.45214 80.5487 3.45214 79.7555C3.45214 78.9627 3.02516 76.7059 2.53719 74.7538C2.04921 72.8018 1.74422 70.9719 1.98821 70.6672C2.78117 69.3863 4.18411 70.3012 6.38 73.5951ZM43.7103 96.7128C43.7103 98.3598 42.7953 98.6649 42.2463 97.2618C42.0633 96.7737 41.5144 96.3469 40.9654 96.3469C39.6844 96.3469 39.8065 95.2489 41.1484 95.0051C42.8563 94.5778 43.7103 95.1881 43.7103 96.7128ZM28.095 130.688C28.766 131.176 29.132 131.847 29.01 132.274C28.827 132.762 28.217 132.457 27.3021 131.481C25.7161 129.773 26.2651 129.346 28.095 130.688ZM13.2117 132.64C13.6387 133.128 14.3706 133.555 14.8586 133.555C15.3466 133.555 15.5296 133.799 15.3466 134.165C14.7366 135.141 12.1747 134.897 11.7478 133.799C10.9548 131.664 11.8088 130.932 13.2117 132.64Z" fill="black"/>
<path d="M73.4463 5.46094H142.068V5.91842L110.045 58.5285L110.273 60.5871L110.96 61.7308L150.989 74.3115V75.2264L70.4727 172.212H71.6164L72.7601 173.127L65.6692 181.133L63.6106 180.675L62.2381 179.303L64.2968 170.839L65.6692 169.925L66.8129 172.669L88.5431 96.9567L87.1707 94.2118L54.2322 82.7748L73.4463 5.46094Z" fill="#F7CF5B"/>
<path d="M70.9302 170.153C69.4663 169.604 121.558 105.878 147.787 74.0827L151.218 73.3965L151.675 75.9127C125.37 107.555 72.3942 170.702 70.9302 170.153Z" fill="#F1B241"/>
<path d="M109.816 59.4434C106.156 58.8944 125.98 23.0739 136.35 5.23219L139.552 5.46093H141.839L142.526 6.14715C133.147 24.1413 113.476 59.9924 109.816 59.4434Z" fill="#F1B241"/>
<path d="M73.0497 0.520296C72.2569 0.703283 71.0981 1.61824 70.4878 2.41121C69.329 4.11912 49.8098 79.2065 49.8098 82.1344C49.8098 86.2215 51.335 87.0751 68.0481 92.3819C83.1755 97.201 83.4193 97.2618 83.1142 98.7866C82.9925 99.6407 77.8687 117.696 71.83 138.923C65.73 160.089 60.7892 178.083 60.7892 178.815C60.7892 179.608 61.0335 180.523 61.2774 180.95C61.9485 182.048 64.7542 182.902 66.2181 182.536C67.2552 182.292 100.804 142.888 150.028 84.2086C154.725 78.5967 155.335 77.5596 155.335 75.4858C155.335 71.0332 154.237 70.4229 133.254 64.3234L114.589 58.8945L115.687 57.3088C116.236 56.4547 119.042 52.0629 121.909 47.549C124.775 43.0353 131.485 32.2998 136.853 23.7602C142.221 15.2206 146.796 7.59594 147.04 6.86398C147.771 4.6071 145.942 1.31324 143.624 0.703283C142.526 0.398288 141.489 0.2153 141.367 0.337292C141.245 0.459287 141.916 1.55724 142.831 2.71618C144.661 5.15607 144.478 6.315 142.465 4.4851C141.245 3.38716 139.72 3.32616 119.408 3.02117L97.6927 2.71618L97.8148 1.31324C97.9978 -0.272671 96.7169 -0.455673 95.3138 0.94727C94.2158 2.04521 94.0937 2.89918 94.9478 4.24112C95.4359 5.03406 98.9736 5.21705 118.676 5.46107L141.916 5.76603L138.073 11.8658C110.99 54.8686 109.587 57.1867 109.587 58.9558C109.587 62.7373 110.502 63.1646 130.021 68.959C140.086 71.9482 148.626 74.3879 149.052 74.3879C150.882 74.3879 150.211 75.9127 146.674 79.9998C144.538 82.4395 135.023 93.785 125.447 105.13C115.87 116.476 100.498 134.775 91.288 145.694C72.928 167.47 67.4991 174.057 67.4991 174.606C67.4991 175.155 69.4511 174.362 70.7321 173.325C72.6228 171.678 71.83 173.081 68.7192 176.802C65.4862 180.706 64.2052 181.316 63.5341 179.303C63.1681 178.144 64.7542 171.373 65.4253 171.373C65.547 171.373 65.913 171.983 66.2181 172.715C66.7063 174.057 66.7063 174.057 67.3161 172.898C68.4749 170.702 88.8482 98.4819 88.8482 96.5907C88.8482 95.5541 88.3601 94.2731 87.8111 93.785C87.2013 93.236 79.6987 90.552 71.1589 87.8071C62.6192 85.0622 55.4216 82.6833 55.1778 82.4395C54.9948 82.1957 59.1423 65.1775 64.5104 44.5602C69.8171 23.9432 74.2089 6.74201 74.2089 6.25402C74.2089 5.64406 75.4286 5.46107 79.1497 5.46107C84.7611 5.46107 86.4085 4.85107 86.4085 2.71618C86.4085 1.86223 85.9204 0.94727 85.2493 0.581292C83.2977 -0.394663 82.6874 -0.150678 83.1142 1.49625C83.4806 3.02117 83.4806 3.02117 79.2714 3.02117C76.4657 3.02117 74.6358 3.32616 73.7208 3.99712C72.196 5.03406 71.8909 4.18013 73.3548 3.02117C74.4528 2.04521 75.6729 -0.0286854 75.0017 0.0323109C74.7579 0.0933069 73.8429 0.276296 73.0497 0.520296ZM85.6761 95.2489C86.1034 95.6757 86.4085 96.4077 86.4085 96.8958C86.4085 97.567 86.1642 97.5057 85.1884 96.652C83.9075 95.4928 83.6023 94.517 84.4564 94.517C84.7003 94.517 85.2493 94.8221 85.6761 95.2489Z" fill="black"/>
</svg>
