<svg width="400" height="400" viewBox="0 0 400 400" fill="none" xmlns="http://www.w3.org/2000/svg">
<g clip-path="url(#clip0_3303_1172)">
<rect x="159.001" y="10" width="155" height="13" rx="6.5" fill="#F7CF5B"/>
<rect x="159.301" y="18.478" width="114.315" height="173.725" transform="rotate(14.448 159.301 18.478)" fill="#F7CF5B"/>
<rect x="161.345" y="13" width="114.315" height="173.725" transform="rotate(14.448 161.345 13)" fill="#F7CF5B"/>
<rect x="296.665" y="11.2334" width="16.8172" height="101.335" transform="rotate(32.7946 296.665 11.2334)" fill="#F7CF5B"/>
<rect x="297.755" y="18.8521" width="38.1413" height="125.952" transform="rotate(93.5742 297.755 18.8521)" fill="#F7CF5B"/>
<rect x="224.521" y="125" width="114.315" height="20.5283" transform="rotate(18.5183 224.521 125)" fill="#F7CF5B"/>
<rect x="224.795" y="119" width="114.315" height="73.0493" transform="rotate(38.8219 224.795 119)" fill="#F7CF5B"/>
<rect x="10.5688" y="150" width="114.315" height="8.16051" transform="rotate(61.108 10.5688 150)" fill="#F7CF5B"/>
<rect x="13.1448" y="168" width="114.315" height="8.16051" transform="rotate(61.108 13.1448 168)" fill="#F7CF5B"/>
<rect x="92.0942" y="213" width="181.913" height="8.16051" transform="rotate(82.6875 92.0942 213)" fill="#F7CF5B"/>
<rect x="88.4456" y="214.53" width="171.297" height="8.16051" transform="rotate(82.6875 88.4456 214.53)" fill="#F7CF5B"/>
<rect x="84.7969" y="216.06" width="157.16" height="8.16051" transform="rotate(82.6875 84.7969 216.06)" fill="#F7CF5B"/>
<rect x="77.1482" y="217.589" width="128.865" height="8.16051" transform="rotate(82.6875 77.1482 217.589)" fill="#F7CF5B"/>
<rect x="69.4995" y="219.119" width="103.385" height="8.16051" transform="rotate(82.6875 69.4995 219.119)" fill="#F7CF5B"/>
<rect x="61.0942" y="221" width="58.4209" height="8.16051" transform="rotate(82.6875 61.0942 221)" fill="#F7CF5B"/>
<path d="M65.4472 223.958L74.1739 291.963L65.0433 293.134L56.3165 225.13L65.4472 223.958Z" fill="#F7CF5B"/>
<path d="M395.275 258.348L233.727 380.242L228.183 372.893L389.731 251L395.275 258.348Z" fill="#F7CF5B"/>
<rect x="52.689" y="222.881" width="58.4209" height="8.16051" transform="rotate(82.6875 52.689 222.881)" fill="#F7CF5B"/>
<rect x="15.7207" y="186" width="103.602" height="8.16051" transform="rotate(61.108 15.7207 186)" fill="#F7CF5B"/>
<rect x="18.2966" y="204" width="84.8153" height="8.16051" transform="rotate(61.108 18.2966 204)" fill="#F7CF5B"/>
<rect x="20.8726" y="222" width="70.7884" height="8.16051" transform="rotate(61.108 20.8726 222)" fill="#F7CF5B"/>
<rect x="23.4485" y="240" width="54.604" height="8.16051" transform="rotate(61.108 23.4485 240)" fill="#F7CF5B"/>
<rect x="28.1448" y="261" width="32.9233" height="8.16051" transform="rotate(61.108 28.1448 261)" fill="#F7CF5B"/>
<rect x="24.1448" y="259" width="32.9233" height="8.16051" transform="rotate(61.108 24.1448 259)" fill="#F7CF5B"/>
<rect x="284.358" y="149.198" width="49.3634" height="73.0493" transform="rotate(37.541 284.358 149.198)" fill="#F7CF5B"/>
<rect x="231.303" y="214.229" width="49.3634" height="99.8272" transform="rotate(40.2978 231.303 214.229)" fill="#F7CF5B"/>
<rect x="172.123" y="287.343" width="25.9276" height="81.3766" transform="rotate(20.9696 172.123 287.343)" fill="#F7CF5B"/>
<rect x="179.332" y="249" width="25.9276" height="81.3766" transform="rotate(1.64141 179.332 249)" fill="#F7CF5B"/>
<rect x="195.565" y="313" width="16.2219" height="99.8272" rx="8.11094" transform="rotate(40.2978 195.565 313)" fill="#F7CF5B"/>
<rect x="193.082" y="200" width="39.3042" height="84.6718" transform="rotate(14.9073 193.082 200)" fill="#F7CF5B"/>
<path d="M386.142 258.205L227.729 384.146L222 376.94L380.413 250.999L386.142 258.205Z" fill="#F7CF5B"/>
<path d="M333.857 306.263L249.729 373.146L244 365.941L328.128 299.058L333.857 306.263Z" fill="#F7CF5B"/>
<path d="M332.774 322.246L262.648 377.997L254.502 367.751L324.628 312L332.774 322.246Z" fill="#F7CF5B"/>
<path d="M337.661 328.589L289.169 367.141L283.136 359.551L331.628 320.999L337.661 328.589Z" fill="#F7CF5B"/>
<path d="M346.511 347.6L286.413 362.631L284.061 353.225L344.159 338.195L346.511 347.6Z" fill="#F7CF5B"/>
<path d="M346.087 337.993L288.621 361.131L283.535 348.498L341.001 325.36L346.087 337.993Z" fill="#F7CF5B"/>
<path d="M358.581 269.676L209.979 387.817L204.25 380.611L352.852 262.471L358.581 269.676Z" fill="#F7CF5B"/>
<path d="M366.331 264.205L217.729 382.346L212 375.14L360.602 256.999L366.331 264.205Z" fill="#F7CF5B"/>
<path d="M326.143 278.471L274.729 319.346L269 312.14L320.415 271.265L326.143 278.471Z" fill="#F7CF5B"/>
<path d="M307.903 284.141L267.729 316.081L262 308.875L302.175 276.936L307.903 284.141Z" fill="#F7CF5B"/>
<path d="M289.526 288.816L267.729 306.145L262 298.939L283.797 281.61L289.526 288.816Z" fill="#F7CF5B"/>
<path d="M340.832 275.278L193.271 392.59L188.28 386.312L335.84 268.999L340.832 275.278Z" fill="#F7CF5B"/>
<path d="M232.444 357.66L185.991 394.591L181 388.313L227.453 351.382L232.444 357.66Z" fill="#F7CF5B"/>
<path d="M207.46 372.985L176.991 397.209L172 390.93L202.469 366.707L207.46 372.985Z" fill="#F7CF5B"/>
<path d="M203.46 373.278L172.991 397.502L168 391.223L198.469 367L203.46 373.278Z" fill="#F7CF5B"/>
<rect x="11.0327" y="155" width="114.315" height="8.16051" transform="rotate(79.8506 11.0327 155)" fill="#F7CF5B"/>
<path d="M300.786 9.91785C301.931 8.0286 304.391 7.42528 306.28 8.5703L318.577 16.0229L244.727 137.873V137.873C236.046 132.612 233.274 121.311 238.535 112.63L300.786 9.91785Z" fill="#F1B241"/>
<path d="M308.76 161.302C314.974 153.276 326.518 151.808 334.544 158.023V158.023L166.018 375.657V375.657C157.993 369.442 156.525 357.898 162.739 349.873L308.76 161.302Z" fill="#F1B241"/>
<path d="M83.96 214.753L91.7991 214L104.026 341.221V341.221C99.6966 341.637 95.8496 338.465 95.4335 334.135L83.96 214.753Z" fill="#F1B241"/>
<path d="M342.071 340L344.195 347.583L221.124 382.055V382.055C219.951 377.866 222.395 373.52 226.583 372.347L342.071 340Z" fill="#F1B241"/>
<path d="M160.133 1.20029C158.4 1.60028 155.867 3.60028 154.533 5.33362C152 9.06693 109.333 173.2 109.333 179.6C109.333 188.534 112.667 190.4 149.2 202C182.267 212.534 182.8 212.667 182.133 216C181.867 217.867 170.667 257.334 157.467 303.734C144.133 350 133.333 389.334 133.333 390.934C133.333 392.667 133.867 394.667 134.4 395.6C135.867 398 142 399.867 145.2 399.067C147.467 398.534 220.8 312.4 328.4 184.134C338.667 171.867 340 169.6 340 165.067C340 155.334 337.6 154 291.734 140.667L250.934 128.8L253.333 125.334C254.534 123.467 260.667 113.867 266.934 104C273.2 94.1336 287.867 70.6669 299.6 52.0003C311.334 33.3336 321.334 16.6669 321.867 15.0669C323.467 10.1336 319.467 2.93359 314.4 1.60028C312 0.933594 309.734 0.5336 309.467 0.800262C309.2 1.06693 310.667 3.46695 312.667 6.00027C316.667 11.3336 316.267 13.8669 311.867 9.86694C309.2 7.46695 305.867 7.33362 261.467 6.66693L214 6.00027L214.267 2.93359C214.667 -0.533051 211.867 -0.933075 208.8 2.13361C206.4 4.5336 206.133 6.40027 208 9.33362C209.067 11.0669 216.8 11.4669 259.867 12.0003L310.667 12.6669L302.267 26.0003C243.067 120 240 125.067 240 128.934C240 137.2 242 138.134 284.667 150.8C306.667 157.334 325.334 162.667 326.267 162.667C330.267 162.667 328.8 166 321.067 174.934C316.4 180.267 295.6 205.067 274.667 229.867C253.734 254.667 220.133 294.667 200 318.534C159.867 366.134 148 380.534 148 381.734C148 382.934 152.267 381.2 155.067 378.934C159.2 375.334 157.467 378.4 150.667 386.534C143.6 395.067 140.8 396.4 139.333 392C138.533 389.467 142 374.667 143.467 374.667C143.733 374.667 144.533 376 145.2 377.6C146.267 380.534 146.267 380.534 147.6 378C150.133 373.2 194.667 215.334 194.667 211.2C194.667 208.934 193.6 206.134 192.4 205.067C191.067 203.867 174.667 198 156 192C137.333 186 121.6 180.8 121.067 180.267C120.667 179.734 129.733 142.534 141.467 97.4669C153.067 52.4003 162.667 14.8003 162.667 13.7336C162.667 12.4003 165.333 12.0003 173.467 12.0003C185.733 12.0003 189.334 10.6669 189.334 6.00027C189.334 4.13361 188.267 2.13361 186.8 1.33362C182.534 -0.799713 181.2 -0.266388 182.133 3.33362C182.934 6.66693 182.934 6.66693 173.733 6.66693C167.6 6.66693 163.6 7.33362 161.6 8.80026C158.267 11.0669 157.6 9.20029 160.8 6.66693C163.2 4.5336 165.867 0.000274658 164.4 0.133606C163.867 0.266937 161.867 0.666931 160.133 1.20029ZM187.733 208.267C188.667 209.2 189.334 210.8 189.334 211.867C189.334 213.334 188.8 213.2 186.667 211.334C183.867 208.8 183.2 206.667 185.067 206.667C185.6 206.667 186.8 207.334 187.733 208.267Z" fill="black"/>
<path d="M195.333 6.66697C194.267 8.26697 198 9.86696 200 8.66696C200.667 8.26696 201.333 7.33363 201.333 6.53363C201.333 4.93363 196.4 4.93363 195.333 6.66697Z" fill="black"/>
<path d="M2.66679 149.334C0.533452 151.467 0.133452 153.2 0.666785 157.067C11.2001 235.2 20.5335 295.734 22.2668 297.6C26.0001 301.734 28.8001 301.467 43.4668 296.134C51.4668 293.2 58.0001 290.934 58.1335 291.067C58.2668 291.2 69.0668 315.2 82.1335 344.4C95.8668 375.067 106.933 398.134 108.267 398.8C112 400.8 117.2 398.8 118.267 394.934C118.667 393.067 115.2 349.867 110.4 299.067C100.933 198.667 101.467 201.334 93.3335 201.334C91.3335 201.334 82.6668 204.667 74.1335 208.667C65.6001 212.667 58.4001 216 58.0001 216C57.7335 216 47.7335 201.467 35.8668 183.6C24.0001 165.867 13.4668 150.267 12.2668 148.934C9.60012 145.867 6.00012 146 2.66679 149.334ZM14.4001 160.934C17.2001 165.2 20.2668 170 21.2001 171.734C22.8001 174.8 22.8001 174.8 19.3335 172.534C17.4668 171.334 15.6001 170.667 15.0668 171.067C13.7335 172.534 50.4001 226.667 53.7335 227.867C57.0668 229.2 62.2668 227.334 79.6001 219.067L90.5335 213.734L91.2001 219.867C91.6001 223.2 94.6668 255.067 98.0001 290.667C101.333 326.267 104.267 357.6 104.8 360.4C105.6 365.734 107.067 366.667 109.067 363.2C110.533 360.534 111.467 364.8 112.8 381.467C114 397.067 112 397.867 105.867 384.4C99.0668 369.867 97.2001 364.267 98.8001 363.334C99.4668 362.8 100 363.334 100 364.4C100 365.467 100.933 366.667 102 367.2C103.067 367.6 104 367.334 104 366.667C104 365.334 72.1335 293.6 67.8668 285.067C64.1335 277.734 60.8001 277.467 45.0668 283.334C37.7335 286 31.6001 288 31.3335 287.734C31.0668 287.6 27.3335 262.267 22.8001 231.6C15.3335 179.867 12.2668 164.667 12.0001 175.334C11.8668 177.467 11.4668 178.534 11.0668 177.6C10.8001 176.8 9.86679 176.267 9.20012 176.8C8.53345 177.2 8.00012 176.134 8.00012 174.4C8.00012 172.667 7.06679 167.734 6.00012 163.467C4.93345 159.2 4.26679 155.2 4.80012 154.534C6.53345 151.734 9.60012 153.734 14.4001 160.934ZM96.0001 211.467C96.0001 215.067 94.0001 215.734 92.8001 212.667C92.4001 211.6 91.2001 210.667 90.0001 210.667C87.2001 210.667 87.4668 208.267 90.4001 207.734C94.1335 206.8 96.0001 208.134 96.0001 211.467ZM61.8668 285.734C63.3335 286.8 64.1335 288.267 63.8668 289.2C63.4668 290.267 62.1335 289.6 60.1335 287.467C56.6668 283.734 57.8668 282.8 61.8668 285.734ZM29.3335 290C30.2668 291.067 31.8668 292 32.9335 292C34.0001 292 34.4001 292.534 34.0001 293.334C32.6668 295.467 27.0668 294.934 26.1335 292.534C24.4001 287.867 26.2668 286.267 29.3335 290Z" fill="black"/>
<path d="M323.334 268.134C286 279.2 254.267 289.067 253.067 290.267C249.334 293.734 250.267 298.134 257.734 312.4C261.467 319.734 264.134 325.867 263.334 326.134C260.934 327.067 168.8 385.467 166.4 387.6C163.067 390.667 163.467 395.6 167.2 398C170.934 400.534 167.067 401.2 247.2 382.134C280.4 374.267 306.267 367.467 306.8 366.4C308.534 363.867 307.734 359.867 305.2 358.267C303.467 357.2 291.734 359.467 259.2 367.334C198.134 381.867 195.067 382.667 197.867 384.667C200.8 386.8 198.534 388.667 191.334 390C188.4 390.4 182.8 392 178.934 393.334C172.667 395.6 171.734 395.6 171.067 393.867C170 391.2 171.6 389.867 186.267 380.8C199.734 372.667 201.334 372 197.334 376C194.534 378.8 193.867 381.334 195.867 381.334C196.4 381.334 207.067 374.934 219.467 367.2C231.867 359.334 248.267 349.067 256 344.267C272.4 334.267 277.867 329.067 276.8 324.8C276.4 323.2 273.2 316.534 269.6 310L263.067 298L272.534 295.2C277.734 293.734 302.134 286.534 326.934 279.334C351.6 272.267 372.534 265.867 373.467 265.2C374.934 264.4 374.8 263.734 372.8 262.267C370.4 260.534 370.667 260.134 377.734 258.134C396.134 252.8 397.734 254.134 385.734 264.8C375.867 273.334 373.867 274.534 375.867 270.934C378.4 266.134 377.467 265.067 373.467 267.867C366.667 272.667 328.134 307.867 326.667 310.534C326 312 325.334 313.734 325.334 314.4C325.334 315.067 329.867 322.667 335.334 331.2C341.467 340.8 344.667 346.934 343.6 347.334C342.667 347.6 338.667 348.534 334.667 349.467C324.8 351.6 322.667 352.8 322.667 356.534C322.667 362.8 325.6 363.467 339.734 360.134C353.2 356.934 358.667 353.6 358.667 348.8C358.667 347.334 354 338.934 348.4 330.267L338.267 314.267L344.534 308.8C376.134 281.067 397.334 261.467 398.534 259.067C400.8 254.134 396.934 247.467 392.267 248.134C391.734 248.134 360.8 257.2 323.334 268.134ZM262.667 293.2C262.667 294 262.134 294.934 261.334 295.334C260.667 295.734 260 297.334 260 298.8C260 300.267 259.467 301.067 258.667 300.667C256.8 299.467 257.067 293.734 259.067 292.934C261.6 291.867 262.667 291.867 262.667 293.2ZM336.934 309.067C335.734 310.267 334.267 312.934 333.467 314.667L332.134 318V314.534C332 312.267 333.067 310.267 335.067 308.934C338.934 306.134 339.6 306.134 336.934 309.067ZM352 348.134C352 350.4 349.467 352 345.734 352C343.867 352 343.867 351.734 345.734 349.6C347.067 348.267 348 345.734 348 344C348 340.934 348 340.934 350 343.467C351.067 344.8 352 346.934 352 348.134Z" fill="black"/>
<path d="M312.134 356.4C309.734 358.8 310.4 361.734 313.067 360.667C314.267 360.134 316.134 359.6 317.067 359.6C317.867 359.6 318.667 358.8 318.667 357.867C318.667 355.734 313.867 354.667 312.134 356.4Z" fill="black"/>
</g>
<defs>
<clipPath id="clip0_3303_1172">
<rect width="400" height="400" fill="white"/>
</clipPath>
</defs>
</svg>
